<svg width="20" height="12" viewBox="0 0 20 12" fill="none" xmlns="http://www.w3.org/2000/svg">
<path d="M18.0906 0.634277H1.54669C0.907099 0.634277 0.388611 1.06543 0.388611 1.59729V10.402C0.388611 10.9339 0.907099 11.365 1.54669 11.365H18.0906C18.7302 11.365 19.2487 10.9339 19.2487 10.402V1.59729C19.2487 1.06543 18.7302 0.634277 18.0906 0.634277Z" fill="#006FCF" stroke="#F3F3F3" stroke-width="0.364029"/>
<path fill-rule="evenodd" clip-rule="evenodd" d="M4.14842 8.44647V6.18077H7.23344L7.56442 6.51631L7.90635 6.18077H19.1042V8.29022C19.1042 8.29022 18.8113 8.44421 18.4726 8.44647H12.2722L11.899 8.08933V8.44647H10.6761V7.8368C10.6761 7.8368 10.5091 7.9219 10.148 7.9219H9.73171V8.44647H7.88017L7.54966 8.10375L7.21408 8.44647H4.14842ZM0.554016 4.47312L1.24812 3.21191H2.4485L2.84241 3.9184V3.21191H4.33457L4.5691 3.72252L4.79641 3.21191H11.4948V3.46862C11.4948 3.46862 11.8469 3.21191 12.4256 3.21191L14.599 3.21784L14.9861 3.91507V3.21191H16.2348L16.5785 3.61241V3.21191H17.8387V5.47763H16.5785L16.2491 5.07583V5.47763H14.4145L14.2299 5.12046H13.7367L13.5552 5.47763H12.311C11.8131 5.47763 11.4948 5.22615 11.4948 5.22615V5.47763H9.61881L9.24647 5.12046V5.47763H2.27067L2.08629 5.12046H1.59465L1.41158 5.47763H0.554016V4.47312ZM0.557596 5.18771L1.49379 3.49123H2.20354L3.13884 5.18771H2.5159L2.34406 4.84801H1.33985L1.16711 5.18771H0.557596ZM2.14626 4.4797L1.84016 3.88604L1.53317 4.4797H2.14626ZM3.20328 5.18743V3.49093L4.06944 3.49346L4.5732 4.58723L5.06492 3.49093H5.92415V5.18743H5.37999V3.93738L4.80313 5.18743H4.3259L3.74746 3.93738V5.18743H3.20328ZM6.29649 5.18743V3.49093H8.07222V3.87041H6.84638V4.16061H8.04356V4.51775H6.84638V4.81912H8.07222V5.18743H6.29649ZM8.38725 5.18771V3.49123H9.59823C9.99945 3.49123 10.359 3.68461 10.359 4.04161C10.359 4.3468 10.0559 4.54337 9.76202 4.56268L10.478 5.18771H9.81304L9.16054 4.58503H8.93141V5.18771H8.38725ZM9.55346 3.87072H8.93141V4.22786H9.56154C9.67059 4.22786 9.81122 4.16199 9.81122 4.04929C9.81122 3.96168 9.70269 3.87072 9.55346 3.87072ZM11.1368 5.18743H10.5811V3.49093H11.1368V5.18743ZM12.4542 5.18743H12.3343C11.754 5.18743 11.4017 4.83112 11.4017 4.34617C11.4017 3.84923 11.7501 3.49093 12.4829 3.49093H13.0843V3.89276H12.4609C12.1634 3.89276 11.953 4.07369 11.953 4.35035C11.953 4.67891 12.1936 4.81689 12.5401 4.81689H12.6833L12.4542 5.18743ZM12.7021 5.18771L13.6383 3.49123H14.3481L15.2834 5.18771H14.6604L14.4886 4.84801H13.4844L13.3117 5.18771H12.7021ZM14.2908 4.4797L13.9847 3.88604L13.6777 4.4797H14.2908ZM15.347 5.18743V3.49093H16.0388L16.9222 4.55682V3.49093H17.4664V5.18743H16.7969L15.8911 4.09364V5.18743H15.347ZM4.52076 8.1563V6.4598H6.29649V6.83928H5.07065V7.12948H6.26783V7.48662H5.07065V7.78799H6.29649V8.1563H4.52076ZM13.2218 8.1563V6.4598H14.9975V6.83928H13.7717V7.12948H14.9632V7.48662H13.7717V7.78799H14.9975V8.1563H13.2218ZM6.36541 8.1563L7.23 7.31851L6.3448 6.4598H7.03041L7.55757 6.99064L8.08651 6.4598H8.74526L7.8717 7.30805L8.73791 8.1563H8.05243L7.54056 7.63382L7.04113 8.1563H6.36541ZM8.80253 8.15658V6.4601H10.0045C10.4978 6.4601 10.7859 6.70784 10.7859 7.0307C10.7859 7.42045 10.4185 7.62084 9.93384 7.62084H9.36102V8.15658H8.80253ZM9.96428 6.84374H9.36102V7.23439H9.96249C10.1214 7.23439 10.2328 7.15229 10.2328 7.03907C10.2328 6.91855 10.1209 6.84374 9.96428 6.84374ZM11.0222 8.1563V6.4598H12.2332C12.6344 6.4598 12.9939 6.65317 12.9939 7.01017C12.9939 7.31537 12.6908 7.51193 12.3969 7.53128L13.113 8.1563H12.448L11.7955 7.55359H11.5664V8.1563H11.0222ZM12.1884 6.83928H11.5664V7.19642H12.1965C12.3055 7.19642 12.4462 7.13058 12.4462 7.01785C12.4462 6.93024 12.3376 6.83928 12.1884 6.83928ZM15.2496 8.1563V7.78799H16.3386C16.4998 7.78799 16.5696 7.72011 16.5696 7.64568C16.5696 7.57436 16.5 7.50225 16.3386 7.50225H15.8465C15.4187 7.50225 15.1805 7.29911 15.1805 6.99413C15.1805 6.72212 15.3986 6.4598 16.0343 6.4598H17.094L16.8649 6.84151H15.9484C15.7732 6.84151 15.7193 6.91316 15.7193 6.98159C15.7193 7.05191 15.7859 7.12948 15.9198 7.12948H16.4353C16.9121 7.12948 17.1191 7.3403 17.1191 7.61638C17.1191 7.91318 16.8885 8.1563 16.4093 8.1563H15.2496ZM17.1671 8.1563V7.78799H18.2561C18.4173 7.78799 18.487 7.72011 18.487 7.64568C18.487 7.57436 18.4175 7.50225 18.2561 7.50225H17.764C17.3362 7.50225 17.098 7.29911 17.098 6.99413C17.098 6.72212 17.3161 6.4598 17.9518 6.4598H19.0115L18.7824 6.84151H17.8659C17.6907 6.84151 17.6368 6.91316 17.6368 6.98159C17.6368 7.05191 17.7034 7.12948 17.8372 7.12948H18.3528C18.8297 7.12948 19.0366 7.3403 19.0366 7.61638C19.0366 7.91318 18.806 8.1563 18.3268 8.1563H17.1671Z" fill="white"/>
</svg>
