<svg width="19" height="11" viewBox="0 0 19 11" fill="none" xmlns="http://www.w3.org/2000/svg">
<path fill-rule="evenodd" clip-rule="evenodd" d="M1.32969 0C0.595472 0 0 0.503922 0 1.12536V9.12494C0 9.7465 0.595278 10.2503 1.32969 10.2503H17.5304C18.2646 10.2503 18.8601 9.74638 18.8601 9.12494V1.12536C18.8601 0.503799 18.2648 0 17.5304 0H1.32969Z" fill="#4D4D4D"/>
<path fill-rule="evenodd" clip-rule="evenodd" d="M7.91037 3.31299C8.12405 3.31299 8.30324 3.34949 8.52134 3.43759V3.90307C8.31475 3.74219 8.13556 3.67486 7.89857 3.67486C7.43278 3.67486 7.06645 3.98206 7.06645 4.37151C7.06645 4.78224 7.42143 5.07115 7.92169 5.07115C8.14685 5.07115 8.32273 5.00732 8.52134 4.84902V5.31474C8.29548 5.39945 8.11244 5.43292 7.89857 5.43292C7.14228 5.43292 6.55462 4.97061 6.55462 4.3744C6.55462 3.78462 7.15793 3.31299 7.91037 3.31299ZM5.56222 3.32582C5.84139 3.32582 6.09683 3.40193 6.31041 3.55075L6.05052 3.8218C5.92116 3.70628 5.79881 3.65755 5.65001 3.65755C5.43595 3.65755 5.28006 3.75463 5.28006 3.88238C5.28006 3.99192 5.36757 4.0499 5.66558 4.13776C6.23054 4.30234 6.39798 4.44825 6.39798 4.77049C6.39798 5.16318 6.03587 5.43652 5.51978 5.43652C5.14185 5.43652 4.86708 5.31795 4.63824 5.0504L4.95905 4.80427C5.07342 4.98043 5.26425 5.07479 5.50116 5.07479C5.72272 5.07479 5.88675 4.95302 5.88675 4.78868C5.88675 4.70349 5.83707 4.63045 5.73786 4.57881C5.6879 4.55436 5.58896 4.5179 5.39451 4.46327C4.92806 4.32951 4.76801 4.18651 4.76801 3.90708C4.76801 3.57512 5.1117 3.32582 5.56222 3.32582ZM11.2377 3.36117H11.7802L12.4593 4.72362L13.1471 3.36117H13.6855L12.5855 5.44163H12.3182L11.2377 3.36117ZM1.63 3.36428H2.35902C3.16449 3.36428 3.72599 3.78129 3.72599 4.37992C3.72599 4.67843 3.55422 4.96703 3.26373 5.15855C3.01932 5.32021 2.74082 5.39271 2.3552 5.39271H1.63V3.36428ZM3.95451 3.36428H4.45116V5.39271H3.95451V3.36428ZM13.9101 3.36428H15.3186V3.708H14.4064V4.15822H15.285V4.50176H14.4064V5.0493H15.3186V5.39271H13.9101L13.9101 3.36428ZM15.6476 3.36428H16.384C16.9568 3.36428 17.285 3.5834 17.285 3.96318C17.285 4.27375 17.0792 4.47753 16.7051 4.5382L17.5066 5.39271H16.8958L16.2084 4.57785H16.1436V5.39271H15.6476V3.36428ZM16.1436 3.68378V4.29808H16.2888C16.6059 4.29808 16.774 4.18838 16.774 3.98447C16.774 3.78708 16.6059 3.68378 16.2966 3.68378H16.1436ZM2.12632 3.70798V5.0493H2.25959C2.58053 5.0493 2.78323 5.00032 2.93928 4.88808C3.11103 4.76624 3.21435 4.57167 3.21435 4.37699C3.21435 4.18265 3.11103 3.99389 2.93928 3.87203C2.77522 3.75377 2.58053 3.70798 2.25959 3.70798H2.12632Z" fill="white"/>
<path fill-rule="evenodd" clip-rule="evenodd" d="M10.0377 3.29836C10.7859 3.29836 11.3923 3.7808 11.3923 4.37677V4.37744C11.3923 4.97343 10.7859 5.45653 10.0378 5.45653C9.28964 5.45653 8.68317 4.97341 8.68317 4.37744V4.37677C8.68317 3.78078 9.28964 3.29834 10.0378 3.29834L10.0377 3.29836ZM18.8597 5.89981C18.2298 6.27483 13.514 8.95526 5.3493 10.2499H17.53C18.2642 10.2499 18.8597 9.74602 18.8597 9.12458V5.89973L18.8597 5.89981Z" fill="#F47216"/>
</svg>
