<svg width="19" height="12" viewBox="0 0 19 12" fill="none" xmlns="http://www.w3.org/2000/svg">
<path d="M11.98 1.81787H6.88013V10.1823H11.98V1.81787Z" fill="#FF5F00"/>
<path d="M7.20409 5.99968C7.20328 5.19413 7.40329 4.39897 7.78896 3.6744C8.17464 2.94982 8.73588 2.31483 9.43019 1.81749C8.57039 1.20067 7.53778 0.817076 6.4504 0.710557C5.36302 0.604038 4.26474 0.778885 3.28109 1.21512C2.29744 1.65136 1.46812 2.33139 0.887901 3.17747C0.307687 4.02355 0 5.00155 0 5.99968C0 6.99782 0.307687 7.97582 0.887901 8.8219C1.46812 9.66798 2.29744 10.348 3.28109 10.7842C4.26474 11.2205 5.36302 11.3953 6.4504 11.2888C7.53778 11.1823 8.57039 10.7987 9.43019 10.1819C8.73589 9.68453 8.17465 9.04954 7.78897 8.32496C7.4033 7.60039 7.20329 6.80523 7.20409 5.99968Z" fill="#EB001B"/>
<path d="M18.8601 5.99968C18.8602 6.99781 18.5525 7.9758 17.9723 8.82188C17.3922 9.66796 16.5629 10.348 15.5792 10.7842C14.5956 11.2205 13.4973 11.3953 12.41 11.2888C11.3226 11.1823 10.29 10.7987 9.43024 10.1819C10.1239 9.68403 10.6847 9.04894 11.0704 8.32448C11.456 7.60002 11.6563 6.80511 11.6563 5.99968C11.6563 5.19426 11.456 4.39935 11.0704 3.67489C10.6847 2.95043 10.1239 2.31533 9.43024 1.81749C10.29 1.20067 11.3226 0.817073 12.41 0.710556C13.4973 0.604038 14.5956 0.778893 15.5792 1.21514C16.5629 1.65138 17.3922 2.3314 17.9723 3.17748C18.5525 4.02356 18.8602 5.00156 18.8601 5.99968Z" fill="#F79E1B"/>
<path d="M18.3041 9.29648V9.1251H18.3797V9.09018H18.1871V9.1251H18.2628V9.29648H18.3041ZM18.6782 9.29648V9.08984H18.6191L18.5512 9.23197L18.4832 9.08984H18.4241V9.29648H18.4658V9.14061L18.5295 9.275H18.5728L18.6365 9.14027V9.29648H18.6782Z" fill="#F79E1B"/>
</svg>
