<svg width="19" height="12" viewBox="0 0 19 12" fill="none" xmlns="http://www.w3.org/2000/svg">
<path d="M3.746 0.921875H8.45055C9.10705 0.921875 9.51731 1.38688 9.36344 1.95556L7.1718 10.1037C7.01797 10.6724 6.35806 11.1374 5.70159 11.1374H0.997044C0.340541 11.1374 -0.0697155 10.6724 0.0841513 10.1037L2.27572 1.95556C2.42959 1.38393 3.08606 0.921875 3.74253 0.921875H3.746Z" fill="#D10429"/>
<path d="M8.03915 0.921875H13.4517C14.1082 0.921875 13.8107 1.38688 13.6569 1.95556L11.4652 10.1037C11.3114 10.6724 11.3592 11.1374 10.7028 11.1374H5.2905C4.63062 11.1374 4.22374 10.6724 4.38101 10.1037L6.57267 1.95556C6.72651 1.38393 7.38295 0.921875 8.04288 0.921875H8.03945H8.03915Z" fill="#022E64"/>
<path d="M13.2618 0.921875H17.9667C18.6232 0.921875 19.0334 1.38688 18.8795 1.95556L16.6879 10.1037C16.534 10.6724 15.8741 11.1374 15.2177 11.1374H10.5132C9.85324 11.1374 9.44639 10.6724 9.60026 10.1037L11.7919 1.95556C11.9457 1.38393 12.6022 0.921875 13.2587 0.921875H13.2621H13.2618Z" fill="#076F74"/>
<path d="M12.4719 8.60361H12.9164L13.0429 8.23336H12.6018L12.4719 8.60361ZM12.8275 7.58466L12.6736 8.02305C12.6736 8.02305 12.8411 7.94899 12.9335 7.92529C13.0258 7.90752 13.1625 7.8927 13.1625 7.8927L13.2685 7.58764H12.8241L12.8275 7.58466ZM13.0497 6.95677L12.9027 7.37736C12.9027 7.37736 13.0668 7.31217 13.1591 7.2915C13.2514 7.27076 13.3882 7.26483 13.3882 7.26483L13.4942 6.95974H13.0531L13.0497 6.95677ZM14.031 6.95677L13.4566 8.6006H13.6104L13.4908 8.94123H13.3369L13.2993 9.04489H12.7522L12.7899 8.94123H11.6821L11.7915 8.6273H11.9043L12.4856 6.9568L12.6018 6.61914H13.1591L13.101 6.78795C13.101 6.78795 13.248 6.69615 13.3917 6.66353C13.5318 6.63099 14.3387 6.61914 14.3387 6.61914L14.2191 6.95385H14.0276L14.031 6.95677Z" fill="#FEFEFE"/>
<path d="M14.2589 6.61868H14.8538L14.8607 6.81119C14.8573 6.84376 14.888 6.85858 14.9598 6.85858H15.0795L14.9701 7.17554H14.6486C14.3717 7.19332 14.2657 7.08966 14.2726 6.97414L14.2623 6.62163L14.2589 6.61868ZM14.3321 8.12655H13.7646L13.8602 7.84519H14.5099L14.6022 7.58749H13.9628L14.0722 7.27055H15.8502L15.7407 7.58749H15.1424L15.0501 7.84519H15.6484L15.5492 8.12655H14.9031L14.7868 8.24503H15.0501L15.115 8.60045C15.1219 8.636 15.1219 8.65969 15.1355 8.67452C15.1492 8.68636 15.2279 8.69229 15.2723 8.69229H15.3509L15.2279 9.03884H15.0261C14.9954 9.03884 14.9475 9.0359 14.8825 9.0359C14.821 9.02994 14.78 9.00032 14.7389 8.98255C14.7013 8.96776 14.6466 8.92924 14.633 8.86113L14.5714 8.5057L14.2774 8.85521C14.185 8.96478 14.0586 9.05069 13.8431 9.05069H13.4328L13.5422 8.74263H13.6995C13.744 8.74263 13.785 8.72786 13.8158 8.71301C13.8466 8.70116 13.8739 8.68931 13.9013 8.65085L14.3321 8.12655ZM8.12393 7.35561H9.6249L9.51547 7.66662H8.91715L8.82487 7.93019H9.4403L9.32747 8.2501H8.71544L8.56501 8.67956C8.54793 8.72695 8.71204 8.73288 8.77016 8.73288L9.07786 8.69733L8.95475 9.05276H8.26408C8.20944 9.05276 8.1684 9.04684 8.10681 9.03499C8.04866 9.02314 8.02134 8.99945 7.99742 8.96688C7.97343 8.93134 7.9324 8.90467 7.95975 8.82766L8.15806 8.259H7.81616L7.92899 7.93319H8.27089L8.3632 7.6696H8.02134L8.13077 7.35856L8.12393 7.35561ZM9.16095 6.79342H9.77639L9.66355 7.11625H8.82246L8.73014 7.18439C8.68911 7.21698 8.67887 7.20513 8.62756 7.22883C8.57975 7.24952 8.48056 7.29099 8.35062 7.29099H8.08051L8.18991 6.98H8.27198C8.34037 6.98 8.38828 6.97405 8.41217 6.96223C8.43953 6.94744 8.47032 6.91484 8.50105 6.8615L8.65488 6.61865H9.26694L9.16095 6.79637V6.79342ZM10.3209 7.32656C10.3209 7.32656 10.4884 7.19332 10.7756 7.15185C10.8406 7.14 11.2509 7.14587 11.2509 7.14587L11.3124 6.96816H10.4474L10.3209 7.32953L10.3209 7.32656ZM11.1346 7.46281H10.2764L10.2251 7.61385H10.9705C11.0594 7.60498 11.0765 7.6168 11.0833 7.6109L11.138 7.46281H11.1346ZM10.02 6.62163H10.5431L10.4679 6.84971C10.4679 6.84971 10.6321 6.73421 10.7483 6.69271C10.8646 6.65717 11.1244 6.62163 11.1244 6.62163L11.9723 6.61868L11.6817 7.45393C11.6338 7.5961 11.5757 7.68794 11.5415 7.73235C11.5108 7.77382 11.4731 7.81231 11.3979 7.84785C11.3261 7.88045 11.2611 7.90117 11.1996 7.90414C11.1449 7.90709 11.056 7.91006 10.9398 7.91006H10.1226L9.89351 8.57055C9.87303 8.63571 9.86275 8.66825 9.87643 8.68602C9.88667 8.70085 9.91743 8.71862 9.95507 8.71862L10.314 8.689L10.1909 9.05035H9.78752C9.65757 9.05035 9.56526 9.0474 9.5003 9.0444C9.43878 9.0385 9.37376 9.0444 9.32932 9.01481C9.29172 8.98519 9.23364 8.9467 9.23701 8.90815C9.24045 8.87261 9.25753 8.81337 9.28492 8.73044L10.02 6.62163Z" fill="#FEFEFE"/>
<path d="M11.5443 7.95088L11.4964 8.15226C11.476 8.21444 11.4588 8.26186 11.4041 8.30333C11.346 8.34479 11.281 8.38921 11.1238 8.38921L10.8332 8.40106L10.8298 8.62616C10.8263 8.68832 10.8469 8.68239 10.8571 8.69424C10.8708 8.70609 10.881 8.70906 10.8947 8.71499L10.987 8.70904L11.264 8.69722L11.1477 9.02895H10.8298C10.6075 9.02895 10.44 9.023 10.3887 8.98748C10.334 8.95783 10.3271 8.92229 10.3271 8.85713L10.3476 7.97449H10.8571L10.8503 8.15515H10.9733C11.0144 8.15515 11.0452 8.1522 11.0623 8.1433C11.0793 8.1344 11.0896 8.11961 11.0964 8.09889L11.1477 7.95672H11.5478L11.5443 7.95088ZM4.29634 3.5293C4.27926 3.60038 3.95104 4.90656 3.95104 4.90656C3.87921 5.17016 3.82794 5.35975 3.65699 5.48117C3.55783 5.55225 3.44157 5.58482 3.30825 5.58482C3.09283 5.58482 2.96976 5.49302 2.94924 5.31828L2.9458 5.25904C2.9458 5.25904 3.01076 4.90656 3.01076 4.90361C3.01076 4.90361 3.35269 3.71293 3.41424 3.55594C3.41765 3.54707 3.41765 3.54114 3.41765 3.53817C2.7509 3.54412 2.63126 3.53817 2.62442 3.5293C2.62099 3.54114 2.60391 3.61518 2.60391 3.61518L2.25514 4.95696L2.22434 5.06948L2.16626 5.44271C2.16626 5.55228 2.19018 5.64409 2.24149 5.71815C2.40216 5.96102 2.85693 5.99657 3.11335 5.99657C3.445 5.99657 3.75614 5.93435 3.96469 5.82478C4.33054 5.63816 4.42625 5.34495 4.50833 5.08728L4.54936 4.95398C4.54936 4.95398 4.90153 3.71889 4.96309 3.55894C4.96649 3.55004 4.96649 3.54412 4.96993 3.54117C4.48441 3.54412 4.34422 3.54117 4.29634 3.53227V3.5293ZM6.24669 5.98449C6.01075 5.98152 5.92528 5.98152 5.64833 5.99336L5.63806 5.97559C5.66198 5.88376 5.68934 5.79493 5.70985 5.7031L5.74405 5.5787C5.79533 5.38619 5.8432 5.15811 5.85004 5.09C5.85688 5.04853 5.87053 4.94488 5.73378 4.94488C5.67566 4.94488 5.61754 4.96855 5.55602 4.99224C5.52179 5.09592 5.45683 5.38619 5.42264 5.51651C5.35425 5.79493 5.35084 5.8275 5.32008 5.96377L5.29957 5.98152C5.05682 5.97857 4.97135 5.97857 4.69097 5.99042L4.67729 5.96967C4.72517 5.8038 4.76961 5.63794 4.81408 5.47207C4.93031 5.02481 4.9611 4.85305 4.99183 4.62497L5.01579 4.61312C5.28932 4.58056 5.35428 4.57166 5.65174 4.52132L5.67566 4.54501L5.63122 4.68718C5.6825 4.66054 5.73037 4.63387 5.78165 4.61312C5.92184 4.55388 6.07571 4.53611 6.16118 4.53611C6.29109 4.53611 6.43472 4.56871 6.49283 4.69903C6.54755 4.81453 6.51332 4.9567 6.43812 5.2381L6.40052 5.38027C6.32529 5.69423 6.31164 5.75049 6.27057 5.96374L6.24325 5.98152L6.24669 5.98449ZM7.20673 5.98526C7.06314 5.98526 6.97082 5.98231 6.88194 5.98526C6.79303 5.98526 6.70756 5.99121 6.57421 5.99416L6.56737 5.98526L6.56053 5.97341C6.59813 5.85493 6.61525 5.81347 6.63576 5.772C6.65285 5.73054 6.66993 5.68907 6.70416 5.56765C6.74516 5.41065 6.77252 5.30108 6.7896 5.20332C6.81012 5.11149 6.82039 5.03156 6.83407 4.93972L6.84431 4.9338L6.85456 4.92493C6.99818 4.90716 7.08709 4.89531 7.1794 4.88346C7.27172 4.87161 7.36743 4.85682 7.51446 4.83312L7.5213 4.84497L7.5247 4.85682L7.4427 5.15003C7.41534 5.24779 7.38798 5.34552 7.36406 5.44327C7.31272 5.65061 7.28883 5.72762 7.27859 5.78388C7.26491 5.83719 7.26144 5.86386 7.24092 5.97049L7.22724 5.97936L7.21357 5.98826L7.20673 5.98526ZM8.72465 5.25754C8.7144 5.31085 8.65969 5.50931 8.58789 5.59225C8.53658 5.65443 8.47847 5.69295 8.41007 5.69295C8.38959 5.69295 8.27329 5.69295 8.26992 5.54188C8.26992 5.46785 8.287 5.39081 8.30752 5.30791C8.36907 5.06798 8.4443 4.86955 8.63233 4.86955C8.77936 4.86955 8.7896 5.01764 8.72465 5.25754ZM9.34348 5.28123C9.42552 4.96727 9.3606 4.81918 9.28196 4.73032C9.15886 4.59408 8.94007 4.54966 8.7144 4.54966C8.57758 4.54966 8.25624 4.56151 8.00322 4.76292C7.82203 4.90804 7.73656 5.1065 7.68868 5.29606C7.63734 5.48857 7.57925 5.83512 7.94851 5.96545C8.0613 6.00691 8.22545 6.01873 8.33144 6.01873C8.60157 6.01873 8.87851 5.9536 9.08706 5.76404C9.24773 5.61002 9.31953 5.37899 9.34689 5.28123H9.34348ZM15.1066 6.02043C14.8194 6.01748 14.7374 6.01748 14.4741 6.02933L14.457 6.01156C14.5288 5.77756 14.6006 5.54061 14.6655 5.30365C14.7476 4.99562 14.7681 4.86529 14.7955 4.68463L14.8159 4.66984C15.0998 4.6343 15.1784 4.62542 15.4759 4.57803L15.4827 4.59875C15.428 4.79424 15.3767 4.98677 15.322 5.17928C15.2126 5.58508 15.175 5.79241 15.134 6.00567L15.1066 6.02344V6.02043Z" fill="#FEFEFE"/>
<path d="M14.6937 5.29719C14.68 5.34753 14.6253 5.54894 14.5535 5.63187C14.5056 5.69111 14.3894 5.72963 14.3244 5.72963C14.3039 5.72963 14.1911 5.72963 14.1842 5.58153C14.1842 5.50747 14.2013 5.43046 14.2218 5.34753C14.2834 5.11355 14.3586 4.91509 14.5466 4.91509C14.6937 4.91509 14.7586 5.06021 14.6937 5.30014V5.29719ZM15.2578 5.32089C15.3398 5.00693 15.0048 5.29424 14.9535 5.19056C14.8715 5.02765 14.9227 4.70184 14.5945 4.59226C14.468 4.54782 14.1706 4.60411 13.9175 4.80552C13.7397 4.94769 13.6508 5.14612 13.603 5.33568C13.5516 5.52524 13.4936 5.87477 13.8594 5.9962C13.9757 6.04061 14.0816 6.05246 14.1876 6.04654C14.557 6.02876 14.8373 5.54596 15.0459 5.3564C15.2065 5.20536 15.2339 5.41269 15.2578 5.32089ZM10.9646 5.98449C10.7287 5.98152 10.6466 5.98152 10.3697 5.99336L10.3594 5.97559C10.3834 5.88376 10.4107 5.79493 10.4346 5.7031L10.4654 5.5787C10.5167 5.38619 10.568 5.15811 10.5714 5.09C10.5782 5.04853 10.5919 4.94488 10.4586 4.94488C10.4004 4.94488 10.3389 4.96855 10.2808 4.99224C10.25 5.09592 10.1816 5.38619 10.1474 5.51651C10.0825 5.79493 10.0756 5.8275 10.0449 5.96377L10.0243 5.98152C9.7816 5.97857 9.69612 5.97857 9.41575 5.99042L9.40207 5.96967C9.44994 5.8038 9.49438 5.63794 9.53885 5.47207C9.65512 5.02481 9.68248 4.85305 9.71661 4.62497L9.73713 4.61312C10.0107 4.58056 10.0791 4.57166 10.3731 4.52132L10.3971 4.54501L10.356 4.68718C10.4039 4.66054 10.4552 4.63387 10.5031 4.61312C10.6432 4.55388 10.7971 4.53611 10.8825 4.53611C11.0125 4.53611 11.1527 4.56871 11.2142 4.69903C11.2689 4.81453 11.2313 4.9567 11.1561 5.2381L11.1185 5.38027C11.0398 5.69423 11.0296 5.75049 10.9885 5.96374L10.9612 5.98152L10.9646 5.98449ZM13.0131 3.53224L12.8148 3.53522C12.3019 3.54114 12.0968 3.53817 12.0148 3.5293C12.0079 3.56189 11.9942 3.61815 11.9942 3.61815C11.9942 3.61815 11.8096 4.3527 11.8096 4.35565C11.8096 4.35565 11.372 5.91953 11.3515 5.99356C11.7993 5.98764 11.9806 5.98764 12.0592 5.99654C12.0764 5.92248 12.1789 5.48709 12.1823 5.48709C12.1823 5.48709 12.2712 5.16721 12.2747 5.15536C12.2747 5.15536 12.3019 5.12277 12.3293 5.10797H12.3703C12.7567 5.10797 13.1909 5.10797 13.5329 4.89177C13.7654 4.74367 13.9227 4.52152 13.9944 4.25495C14.0115 4.18978 14.0252 4.11278 14.0252 4.03282C14.0252 3.92914 14.0013 3.82846 13.9329 3.74848C13.7585 3.53817 13.4131 3.53522 13.0131 3.53224ZM13.2696 4.29939C13.2286 4.46228 13.1054 4.6015 12.9482 4.66666C12.8182 4.72293 12.661 4.72885 12.4969 4.72885H12.3909L12.3977 4.69331C12.3977 4.69331 12.5926 3.95876 12.5926 3.96173L12.5994 3.92321L12.6028 3.8936L12.6815 3.89955C12.6815 3.89955 13.0849 3.92914 13.0918 3.92914C13.249 3.98245 13.3174 4.1187 13.2696 4.29939ZM17.4726 4.54501L17.4487 4.52132C17.158 4.57166 17.1033 4.58056 16.8366 4.61315L16.8162 4.63089C16.8162 4.63387 16.8127 4.63685 16.8127 4.64274V4.63979C16.6144 5.03963 16.6178 4.95375 16.4571 5.26771C16.4571 5.25289 16.4571 5.24402 16.4537 5.2292L16.4126 4.54796L16.3888 4.52427C16.081 4.57463 16.0742 4.5835 15.7938 4.6161L15.7733 4.63387C15.7698 4.64274 15.7698 4.65164 15.7698 4.66051L15.7733 4.66349C15.8075 4.82045 15.8006 4.78491 15.8348 5.03076C15.8519 5.15219 15.8724 5.27364 15.8895 5.39211C15.9169 5.59352 15.934 5.69125 15.9682 5.99634C15.7767 6.26881 15.7322 6.37249 15.5476 6.61236L15.5579 6.63605C15.8349 6.62721 15.8964 6.62721 16.1015 6.62721L16.146 6.58277C16.2998 6.29551 17.4761 4.54799 17.4761 4.54799L17.4726 4.54501ZM7.47072 4.74121C7.62799 4.64643 7.64848 4.5161 7.51516 4.44799C7.38181 4.37986 7.14591 4.4006 6.9886 4.49538C6.83133 4.58722 6.81425 4.71751 6.9476 4.7886C7.07751 4.85379 7.31342 4.83599 7.47072 4.74121Z" fill="#FEFEFE"/>
</svg>
