<svg width="22" height="11" viewBox="0 0 22 11" fill="none" xmlns="http://www.w3.org/2000/svg">
<path d="M21.1813 0H0.580311C0.259814 0 0 0.308968 0 0.690099V9.5044C0 9.88553 0.259814 10.1945 0.580311 10.1945H21.1813C21.5018 10.1945 21.7617 9.88553 21.7617 9.5044V0.690099C21.7617 0.308968 21.5018 0 21.1813 0Z" fill="#00425F"/>
<path d="M5.03427 8.62609C6.75694 8.62609 8.15344 6.96538 8.15344 4.9168C8.15344 2.86822 6.75694 1.20752 5.03427 1.20752C3.3116 1.20752 1.9151 2.86822 1.9151 4.9168C1.9151 6.96538 3.3116 8.62609 5.03427 8.62609Z" fill="#EE312A"/>
<path d="M5.03419 6.4998C4.33689 4.62012 3.82554 2.86426 3.82554 2.86426H2.75647C2.75647 2.86426 3.40716 5.11802 4.61581 7.93649H5.45257C6.66121 5.11802 7.31191 2.86426 7.31191 2.86426H6.24284C6.24284 2.86426 5.73149 4.62012 5.03419 6.4998Z" fill="white"/>
<path d="M19.937 6.26408H17.8537C17.8537 6.26408 17.9 7.09656 18.8259 7.09656C19.2889 7.09656 19.7518 6.92994 19.7518 6.92994L19.8444 7.81773C19.8444 7.81773 19.3815 8.03969 18.7333 8.03969C17.8074 8.03969 16.9741 7.4848 16.9741 5.93116C16.9741 4.71041 17.6222 3.93359 18.5481 3.93359C19.937 3.93359 20.0296 5.59823 19.937 6.26408ZM18.5019 4.71041C17.9 4.71041 17.8537 5.48724 17.8537 5.48724H19.15C19.15 5.48724 19.1037 4.71041 18.5019 4.71041Z" fill="white"/>
<path d="M12.7441 4.95542L12.8829 4.0723C12.8829 4.0723 11.8106 3.68426 10.9389 4.40347V7.93585H11.8647L11.8646 5.0658C12.2349 4.73464 12.7441 4.95542 12.7441 4.95542Z" fill="white"/>
<path d="M10.2167 6.26408H8.13347C8.13347 6.26408 8.17976 7.09656 9.10566 7.09656C9.5686 7.09656 10.0315 6.92994 10.0315 6.92994L10.1241 7.81773C10.1241 7.81773 9.6612 8.03969 9.01306 8.03969C8.08715 8.03969 7.25385 7.4848 7.25385 5.93116C7.25385 4.71041 7.90198 3.93359 8.82789 3.93359C10.2167 3.93359 10.3093 5.59823 10.2167 6.26408ZM8.78157 4.71041C8.17975 4.71041 8.13347 5.48724 8.13347 5.48724H9.42971C9.42971 5.48724 9.38343 4.71041 8.78157 4.71041Z" fill="white"/>
<path d="M15.001 6.61138C14.7124 5.77638 14.4795 4.91563 14.3046 4.03711L13.3762 4.03726C13.3762 4.03726 13.8404 6.16942 14.6297 7.93617H15.3723C16.1616 6.16942 16.6259 4.03765 16.6259 4.03765H15.6974C15.5225 4.91598 15.2896 5.77655 15.001 6.61138Z" fill="white"/>
</svg>
