<svg width="22" height="5" viewBox="0 0 22 5" fill="none" xmlns="http://www.w3.org/2000/svg">
<path d="M7.73203 4.71134L8.80489 0.0943863H10.5209L9.44727 4.71134H7.73203ZM15.6472 0.193914C15.3073 0.100377 14.7745 0 14.1092 0C12.4135 0 11.2191 0.6262 11.2089 1.52367C11.1993 2.18709 12.0616 2.5572 12.7126 2.77803C13.3806 3.0044 13.6051 3.14869 13.6019 3.35074C13.5976 3.66024 13.0685 3.80156 12.5752 3.80156C11.8884 3.80156 11.5235 3.73158 10.9599 3.55927L10.7387 3.4859L10.4979 4.51943C10.8987 4.64837 11.6399 4.75998 12.4095 4.76578C14.2134 4.76578 15.3844 4.14672 15.3977 3.18831C15.4041 2.66308 14.947 2.26343 13.9569 1.93388C13.3571 1.7203 12.9898 1.57778 12.9936 1.3615C12.9936 1.16959 13.3046 0.964382 13.9765 0.964382C14.5376 0.95799 14.9441 1.04773 15.2609 1.14127L15.4146 1.19455L15.6472 0.193914ZM20.0632 0.0943154H18.7372C18.3265 0.0943154 18.019 0.176532 17.8386 0.477191L15.29 4.7083H17.0921C17.0921 4.7083 17.3866 4.13941 17.4533 4.01448C17.6502 4.01448 19.4008 4.01647 19.651 4.01647C19.7023 4.17812 19.8598 4.7083 19.8598 4.7083H21.4522L20.0632 0.094174V0.0943154ZM17.9593 3.07567C18.1013 2.80966 18.6431 1.78501 18.6431 1.78501C18.633 1.7973 18.784 1.5177 18.8706 1.34436L18.9866 1.74242C18.9866 1.74242 19.3152 2.84451 19.3839 3.0756H17.9593V3.07567ZM6.27523 0.0943154L4.59517 3.24288L4.41619 2.60305C4.10339 1.86546 3.12894 1.06634 2.03955 0.66627L3.57579 4.70399L5.39144 4.7025L8.0931 0.0942683L6.27523 0.0942449" fill="#0E4595"/>
<path d="M3.02745 0.0942383H0.260276L0.238342 0.190299C2.39117 0.572467 3.81562 1.49602 4.40706 2.60585L3.80536 0.484165C3.70151 0.191808 3.40023 0.104545 3.02751 0.094356" fill="#F2AE14"/>
</svg>
