<svg width="18" height="17" viewBox="0 0 18 17" fill="none" xmlns="http://www.w3.org/2000/svg">
<path fill-rule="evenodd" clip-rule="evenodd" d="M0.308169 13.1777L6.61933 1.40456C7.62324 -0.468184 10.3768 -0.468187 11.3807 1.40456L17.6918 13.1777C18.6246 14.9176 17.3276 17 15.3112 17H2.68884C0.672425 17 -0.624556 14.9176 0.308169 13.1777ZM9 3C9.55229 3 10 3.44772 10 4V11C10 11.5523 9.55229 12 9 12C8.44771 12 8 11.5523 8 11V4C8 3.44772 8.44772 3 9 3ZM7.75 13.75C7.75 14.4404 8.30964 15 9 15C9.69036 15 10.25 14.4404 10.25 13.75C10.25 13.0596 9.69036 12.5 9 12.5C8.30964 12.5 7.75 13.0596 7.75 13.75Z" fill="white"/>
</svg>
