<svg width="32" height="31" viewBox="0 0 32 31" fill="none" xmlns="http://www.w3.org/2000/svg">
<path d="M26.3333 18.0755H20.7792L21.7221 12.9245H26.3333C26.6759 12.9245 27.0044 12.7888 27.2467 12.5473C27.4889 12.3058 27.625 11.9782 27.625 11.6367C27.625 11.2951 27.4889 10.9676 27.2467 10.7261C27.0044 10.4846 26.6759 10.3489 26.3333 10.3489H22.1871L23.0783 5.4425C23.1136 5.27034 23.1131 5.0928 23.0769 4.92083C23.0407 4.74886 22.9696 4.58609 22.868 4.44254C22.7663 4.29899 22.6363 4.17769 22.4859 4.08612C22.3355 3.99454 22.1678 3.93463 21.9933 3.91006C21.8198 3.86884 21.6396 3.86391 21.4641 3.89557C21.2886 3.92722 21.1215 3.99478 20.9735 4.09398C20.8254 4.19319 20.6996 4.32189 20.6039 4.47197C20.5082 4.62206 20.4448 4.79028 20.4175 4.96603L19.4487 10.3489H14.4371L15.3283 5.4425C15.3636 5.27034 15.3631 5.0928 15.3269 4.92083C15.2907 4.74886 15.2196 4.58609 15.118 4.44254C15.0163 4.29899 14.8863 4.17769 14.7359 4.08612C14.5855 3.99454 14.4178 3.93463 14.2433 3.91006C14.0698 3.86884 13.8896 3.86391 13.7141 3.89557C13.5386 3.92722 13.3715 3.99478 13.2235 4.09398C13.0754 4.19319 12.9496 4.32189 12.8539 4.47197C12.7582 4.62206 12.6948 4.79028 12.6675 4.96603L11.6987 10.3489H5.66667C5.3241 10.3489 4.99555 10.4846 4.75332 10.7261C4.51109 10.9676 4.375 11.2951 4.375 11.6367C4.375 11.9782 4.51109 12.3058 4.75332 12.5473C4.99555 12.7888 5.3241 12.9245 5.66667 12.9245H11.2208L10.2779 18.0755H5.66667C5.3241 18.0755 4.99555 18.2112 4.75332 18.4527C4.51109 18.6942 4.375 19.0218 4.375 19.3633C4.375 19.7049 4.51109 20.0324 4.75332 20.2739C4.99555 20.5154 5.3241 20.6511 5.66667 20.6511H9.81292L8.92167 25.5575C8.88645 25.7297 8.88694 25.9072 8.92312 26.0792C8.9593 26.2511 9.0304 26.4139 9.13203 26.5575C9.23367 26.701 9.3637 26.8223 9.51411 26.9139C9.66453 27.0055 9.83215 27.0654 10.0067 27.0899C10.1802 27.1312 10.3604 27.1361 10.5359 27.1044C10.7114 27.0728 10.8785 27.0052 11.0265 26.906C11.1746 26.8068 11.3004 26.6781 11.3961 26.528C11.4918 26.3779 11.5552 26.2097 11.5825 26.034L12.5512 20.6511H17.5629L16.6717 25.5575C16.6364 25.7297 16.6369 25.9072 16.6731 26.0792C16.7093 26.2511 16.7804 26.4139 16.882 26.5575C16.9837 26.701 17.1137 26.8223 17.2641 26.9139C17.4145 27.0055 17.5822 27.0654 17.7567 27.0899C17.9302 27.1312 18.1104 27.1361 18.2859 27.1044C18.4614 27.0728 18.6285 27.0052 18.7765 26.906C18.9246 26.8068 19.0504 26.6781 19.1461 26.528C19.2418 26.3779 19.3052 26.2097 19.3325 26.034L20.3012 20.6511H26.3333C26.6759 20.6511 27.0044 20.5154 27.2467 20.2739C27.4889 20.0324 27.625 19.7049 27.625 19.3633C27.625 19.0218 27.4889 18.6942 27.2467 18.4527C27.0044 18.2112 26.6759 18.0755 26.3333 18.0755ZM13.0292 18.0755L13.9721 12.9245H18.9708L18.0279 18.0755H13.0292Z" fill="#01008E"/>
</svg>
