<svg width="18" height="18" viewBox="0 0 18 18" fill="none" xmlns="http://www.w3.org/2000/svg">
  <path
    d="M17 10.994H12.7L13.43 7.00603H17C17.2652 7.00603 17.5196 6.90099 17.7071 6.71402C17.8946 6.52705 18 6.27346 18 6.00905C18 5.74463 17.8946 5.49104 17.7071 5.30407C17.5196 5.1171 17.2652 5.01206 17 5.01206H13.79L14.48 1.21355C14.5073 1.08026 14.5069 0.942815 14.4789 0.809676C14.4509 0.676537 14.3958 0.550522 14.3171 0.439385C14.2385 0.328249 14.1378 0.234342 14.0213 0.163445C13.9049 0.0925489 13.7751 0.046162 13.64 0.02714C13.5057 -0.0047662 13.3662 -0.00858576 13.2303 0.0159217C13.0944 0.0404292 12.965 0.0927325 12.8504 0.169536C12.7358 0.24634 12.6384 0.345978 12.5643 0.462174C12.4902 0.578369 12.4411 0.708602 12.42 0.844667L11.67 5.01206H7.79L8.48 1.21355C8.50727 1.08026 8.50688 0.942815 8.47887 0.809676C8.45086 0.676537 8.39582 0.550522 8.31714 0.439385C8.23845 0.328249 8.13778 0.234342 8.02133 0.163445C7.90488 0.0925489 7.77511 0.046162 7.64 0.02714C7.50566 -0.0047662 7.36615 -0.00858576 7.23026 0.0159217C7.09437 0.0404292 6.96504 0.0927325 6.85042 0.169536C6.73581 0.24634 6.63839 0.345978 6.56431 0.462174C6.49024 0.578369 6.4411 0.708602 6.42 0.844667L5.67 5.01206H1C0.734784 5.01206 0.48043 5.1171 0.292893 5.30407C0.105357 5.49104 0 5.74463 0 6.00905C0 6.27346 0.105357 6.52705 0.292893 6.71402C0.48043 6.90099 0.734784 7.00603 1 7.00603H5.3L4.57 10.994H1C0.734784 10.994 0.48043 11.099 0.292893 11.286C0.105357 11.4729 0 11.7265 0 11.991C0 12.2554 0.105357 12.509 0.292893 12.6959C0.48043 12.8829 0.734784 12.9879 1 12.9879H4.21L3.52 16.7864C3.49273 16.9197 3.49312 17.0572 3.52113 17.1903C3.54914 17.3235 3.60418 17.4495 3.68286 17.5606C3.76155 17.6718 3.86222 17.7657 3.97867 17.8366C4.09512 17.9075 4.22489 17.9538 4.36 17.9729C4.49434 18.0048 4.63385 18.0086 4.76974 17.9841C4.90563 17.9596 5.03496 17.9073 5.14958 17.8305C5.26419 17.7537 5.36161 17.654 5.43569 17.5378C5.50976 17.4216 5.5589 17.2914 5.58 17.1553L6.33 12.9879H10.21L9.52 16.7864C9.49273 16.9197 9.49312 17.0572 9.52113 17.1903C9.54914 17.3235 9.60418 17.4495 9.68286 17.5606C9.76155 17.6718 9.86222 17.7657 9.97867 17.8366C10.0951 17.9075 10.2249 17.9538 10.36 17.9729C10.4943 18.0048 10.6338 18.0086 10.7697 17.9841C10.9056 17.9596 11.035 17.9073 11.1496 17.8305C11.2642 17.7537 11.3616 17.654 11.4357 17.5378C11.5098 17.4216 11.5589 17.2914 11.58 17.1553L12.33 12.9879H17C17.2652 12.9879 17.5196 12.8829 17.7071 12.6959C17.8946 12.509 18 12.2554 18 11.991C18 11.7265 17.8946 11.4729 17.7071 11.286C17.5196 11.099 17.2652 10.994 17 10.994ZM6.7 10.994L7.43 7.00603H11.3L10.57 10.994H6.7Z" />
</svg>
