<svg width="18" height="18" viewBox="0 0 18 18" fill="none" xmlns="http://www.w3.org/2000/svg">
  <path
    d="M17.0141 7.64786H0.985866C0.44523 7.64786 0 8.05497 0 8.54931V17.0986C0 17.5929 0.44523 18 0.985866 18H17.0141C17.5548 18 18 17.5929 18 17.0986V8.54931C18 8.05497 17.5548 7.64786 17.0141 7.64786ZM16.6007 15.0049C15.6466 15.1794 14.8834 15.8482 14.7244 16.7206H3.30742C3.11661 15.8482 2.38516 15.1503 1.4311 15.0049V10.643C2.38516 10.4685 3.14841 9.79972 3.30742 8.92734H14.7244C14.9152 9.79972 15.6466 10.4976 16.6007 10.643V15.0049Z" />
  <path
    d="M3.23733 11.9998C2.83133 11.9998 2.51233 12.3196 2.51233 12.7267C2.51233 13.1338 2.83133 13.4537 3.23733 13.4537C3.64333 13.4537 3.96233 13.1338 3.96233 12.7267C3.96233 12.3196 3.64333 11.9998 3.23733 11.9998Z" />
  <path
    d="M14.6216 12C14.2161 12 13.8975 12.3198 13.8975 12.7269C13.8975 13.1341 14.2161 13.4539 14.6216 13.4539C15.0271 13.4539 15.3458 13.1341 15.3458 12.7269C15.3747 12.3198 15.0271 12 14.6216 12Z" />
  <path
    d="M8.99644 9.99997C7.3184 9.99997 5.99994 11.32 5.99994 13C5.99994 14.68 7.3184 16 8.99644 16C10.6745 16 11.9929 14.68 11.9929 13C12.1128 11.32 10.6745 9.99997 8.99644 9.99997Z" />
  <path
    d="M12.0212 6.19386C12.212 6.39741 12.5618 6.39741 12.7526 6.19386L14.9152 3.83845C15.1696 3.54766 14.947 3.11147 14.5336 3.11147H13.4841V0.436187C13.4841 0.174475 13.2615 0 13.007 0H11.8304C11.5442 0 11.3533 0.203554 11.3533 0.436187V3.11147H10.3039C9.89044 3.11147 9.66783 3.54766 9.92224 3.83845L12.0212 6.19386Z" />
  <path
    d="M5.24738 6.19386C5.43819 6.39741 5.78802 6.39741 5.97883 6.19386L8.14137 3.83845C8.39579 3.54766 8.17318 3.11147 7.75975 3.11147H6.71028V0.436187C6.71028 0.174475 6.48766 0 6.23325 0H5.05657C4.77035 0 4.57954 0.203554 4.57954 0.436187V3.11147H3.53007C3.11664 3.11147 2.89402 3.54766 3.14844 3.83845L5.24738 6.19386Z" />
</svg>
