<svg width="25" height="24" viewBox="0 0 25 24" fill="none" xmlns="http://www.w3.org/2000/svg">
<ellipse cx="11.9" cy="11.3999" rx="9" ry="9" fill="white"/>
<path d="M12.5 22C6.97967 21.9939 2.50606 17.5203 2.5 12V11.8C2.60993 6.30455 7.13459 1.92797 12.6307 2.0009C18.1268 2.07382 22.5337 6.5689 22.4978 12.0654C22.4619 17.5618 17.9966 21.9989 12.5 22ZM8.61568 12.293C8.22572 11.9045 7.59489 11.9051 7.20568 12.2943C6.81594 12.6841 6.81594 13.316 7.20568 13.7057L9.42064 15.9207C10.0168 16.5168 10.9832 16.5168 11.5794 15.9206L17.795 9.70502C18.1848 9.31525 18.1859 8.68367 17.7975 8.29252C17.4072 7.89943 16.7717 7.8983 16.38 8.29002L10.7303 13.9397C10.6031 14.067 10.3967 14.0672 10.2692 13.9401L8.61568 12.293Z" fill="#32BB78"/>
</svg>
