<svg width="13" height="13" viewBox="0 0 13 13" fill="none" xmlns="http://www.w3.org/2000/svg">
<path d="M11.8428 5.89789H1.15724C0.79682 5.89789 0.5 6.16929 0.5 6.49886V12.1984C0.5 12.5279 0.79682 12.7993 1.15724 12.7993H11.8428C12.2032 12.7993 12.5 12.5279 12.5 12.1984V6.49886C12.5 6.16929 12.2032 5.89789 11.8428 5.89789ZM11.5671 10.8026C10.9311 10.9189 10.4223 11.3648 10.3163 11.9464H2.70495C2.57774 11.3648 2.09011 10.8995 1.45406 10.8026V7.89466C2.09011 7.77834 2.59894 7.33246 2.70495 6.75088H10.3163C10.4435 7.33246 10.9311 7.79773 11.5671 7.89466V10.8026Z" fill="#32BB78"/>
<path d="M2.65822 8.79915C2.38755 8.79915 2.17489 9.0124 2.17489 9.28381C2.17489 9.55521 2.38755 9.76846 2.65822 9.76846C2.92889 9.76846 3.14155 9.55521 3.14155 9.28381C3.14155 9.0124 2.92889 8.79915 2.65822 8.79915Z" fill="#32BB78"/>
<path d="M10.2477 8.7993C9.97739 8.7993 9.76497 9.01254 9.76497 9.28395C9.76497 9.55536 9.97739 9.7686 10.2477 9.7686C10.5181 9.7686 10.7305 9.55536 10.7305 9.28395C10.7498 9.01254 10.5181 8.7993 10.2477 8.7993Z" fill="#32BB78"/>
<path d="M6.49763 7.46596C5.37893 7.46596 4.49996 8.34596 4.49996 9.46596C4.49996 10.586 5.37893 11.466 6.49763 11.466C7.61632 11.466 8.4953 10.586 8.4953 9.46596C8.5752 8.34596 7.61632 7.46596 6.49763 7.46596Z" fill="#32BB78"/>
<path d="M8.51412 4.92856C8.64133 5.06426 8.87455 5.06426 9.00176 4.92856L10.4435 3.35828C10.6131 3.16442 10.4647 2.87363 10.189 2.87363H9.48939V1.09011C9.48939 0.915633 9.34098 0.799316 9.17137 0.799316H8.38691C8.1961 0.799316 8.06889 0.935019 8.06889 1.09011V2.87363H7.36925C7.09363 2.87363 6.94522 3.16442 7.11483 3.35828L8.51412 4.92856Z" fill="#32BB78"/>
<path d="M3.99825 4.92856C4.12546 5.06426 4.35868 5.06426 4.48589 4.92856L5.92758 3.35828C6.09719 3.16442 5.94878 2.87363 5.67317 2.87363H4.97352V1.09011C4.97352 0.915633 4.82511 0.799316 4.6555 0.799316H3.87105C3.68023 0.799316 3.55302 0.935019 3.55302 1.09011V2.87363H2.85338C2.57776 2.87363 2.42935 3.16442 2.59896 3.35828L3.99825 4.92856Z" fill="#32BB78"/>
</svg>
