<svg width="11" height="10" viewBox="0 0 11 10" fill="none" xmlns="http://www.w3.org/2000/svg">
<path d="M5.5 8C5.22386 8 5 7.77614 5 7.5L5 4C5 3.72386 5.22386 3.5 5.5 3.5C5.77614 3.5 6 3.72386 6 4L6 7.5C6 7.77614 5.77614 8 5.5 8Z" fill="#CCCCE8"/>
<path d="M6.125 2.625C6.125 2.27982 5.84518 2 5.5 2C5.15482 2 4.875 2.27982 4.875 2.625C4.875 2.97018 5.15482 3.25 5.5 3.25C5.84518 3.25 6.125 2.97018 6.125 2.625Z" fill="#CCCCE8"/>
<path fill-rule="evenodd" clip-rule="evenodd" d="M10.5 5C10.5 7.76142 8.26142 10 5.5 10C2.73858 10 0.5 7.76142 0.5 5C0.500001 2.23858 2.73858 -6.78525e-07 5.5 -4.37114e-07C8.26142 -1.95703e-07 10.5 2.23858 10.5 5ZM5.5 9C7.70914 9 9.5 7.20914 9.5 5C9.5 2.79086 7.70914 1 5.5 1C3.29086 0.999999 1.5 2.79086 1.5 5C1.5 7.20914 3.29086 9 5.5 9Z" fill="#CCCCE8"/>
</svg>
